<?xml version="1.0" standalone="no"?>
<!DOCTYPE svg PUBLIC "-//W3C//DTD SVG 20010904//EN"
 "http://www.w3.org/TR/2001/REC-SVG-20010904/DTD/svg10.dtd">
<svg version="1.0" xmlns="http://www.w3.org/2000/svg"
 width="477.000000pt" height="1024.000000pt" viewBox="0 0 477.000000 1024.000000"
 preserveAspectRatio="xMidYMid meet">

<g transform="translate(0.000000,1024.000000) scale(0.100000,-0.100000)"
fill="#1a6b35" stroke="none">
<path d="M537 5793 l-369 -367 365 -363 c217 -216 373 -363 384 -363 10 0 167
150 383 365 l365 366 -370 364 c-203 201 -374 364 -380 365 -5 0 -176 -166
-378 -367z m738 -21 l347 -344 -354 -348 -353 -348 -335 331 c-184 183 -341
341 -349 351 -13 19 11 44 335 363 192 189 352 342 356 340 3 -1 162 -157 353
-345z"/>
<path d="M602 5738 l-313 -312 313 -313 313 -313 315 315 315 315 -310 310
c-171 170 -312 310 -315 310 -3 0 -146 -141 -318 -312z m418 23 l0 -130 47 21
c134 59 303 -57 303 -210 0 -99 -51 -186 -133 -227 -110 -54 -227 -19 -301 90
l-26 38 0 -72 0 -72 -57 3 c-40 2 -57 7 -55 16 3 16 -2 15 -40 -8 -93 -56
-241 11 -283 129 -56 159 37 311 199 328 67 7 142 -24 191 -78 l35 -39 0 170
0 170 60 0 60 0 0 -129z"/>
<path d="M651 5547 c-49 -17 -74 -56 -75 -116 -1 -62 25 -100 80 -120 35 -12
44 -12 75 3 44 21 69 62 69 116 0 89 -70 144 -149 117z"/>
<path d="M1121 5552 c-40 -6 -68 -31 -86 -74 -40 -101 42 -198 141 -166 32 11
44 22 63 61 21 43 22 53 12 85 -6 20 -17 45 -25 54 -17 24 -75 45 -105 40z"/>
<path d="M2170 5520 l0 -311 43 3 42 3 0 305 0 305 -42 3 -43 3 0 -311z"/>
<path d="M2952 5566 c3 -263 3 -265 27 -290 36 -38 109 -69 166 -69 57 0 97
18 137 60 76 81 61 228 -30 288 -66 43 -116 43 -204 -3 -5 -2 -8 60 -8 137 l0
141 -46 0 -45 0 3 -264z m261 -96 c39 -44 39 -110 -2 -151 -66 -65 -171 -20
-171 74 0 104 105 151 173 77z"/>
<path d="M3820 5640 l0 -60 -30 0 c-28 0 -30 -2 -30 -40 0 -38 2 -40 30 -40
l30 0 0 -105 c0 -153 21 -185 119 -185 l51 0 0 34 c0 31 -3 34 -35 40 -19 4
-39 15 -45 26 -11 21 -13 111 -4 159 6 29 10 31 48 31 l42 0 -4 39 c-4 39 -5
40 -46 43 l-41 3 -3 58 -3 57 -39 0 -40 0 0 -60z"/>
<path d="M1842 5577 c-166 -61 -159 -323 10 -365 45 -12 111 -3 131 17 15 15
27 14 27 -4 0 -11 12 -15 45 -15 l45 0 0 170 0 170 -26 10 c-14 6 -38 10 -52
9 -15 -1 -40 3 -55 10 -35 14 -82 13 -125 -2z m140 -106 c28 -25 33 -36 33
-74 0 -34 -6 -52 -24 -71 -71 -76 -181 -32 -181 71 0 94 101 138 172 74z"/>
<path d="M2435 5576 c-102 -38 -152 -162 -106 -261 35 -76 85 -105 183 -105
43 0 71 6 99 22 45 25 47 33 18 64 l-21 23 -37 -20 c-43 -23 -72 -24 -116 -4
-26 13 -55 49 -55 70 0 3 61 5 135 5 l135 0 0 45 c0 123 -118 203 -235 161z
m110 -72 c18 -7 47 -58 38 -68 -10 -10 -183 -7 -183 3 0 5 12 23 26 40 20 25
34 31 64 31 21 0 46 -3 55 -6z"/>
<path d="M3498 5581 c-102 -33 -157 -161 -114 -264 39 -95 185 -141 282 -89
40 22 46 37 23 65 l-20 27 -39 -20 c-62 -32 -114 -24 -152 24 -35 43 -27 46
122 46 135 0 140 1 140 21 0 35 -21 103 -38 124 -48 58 -138 87 -204 66z m116
-87 c22 -22 36 -50 29 -58 -10 -10 -171 -7 -177 3 -4 5 6 23 20 40 21 26 33
31 69 31 26 0 50 -6 59 -16z"/>
<path d="M2785 5458 c-38 -22 -47 -64 -19 -92 18 -19 65 -21 82 -4 21 21 15
75 -10 92 -26 19 -27 19 -53 4z"/>
</g>
</svg>

