<?xml version="1.0" standalone="no"?>
<!DOCTYPE svg PUBLIC "-//W3C//DTD SVG 20010904//EN"
 "http://www.w3.org/TR/2001/REC-SVG-20010904/DTD/svg10.dtd">
<svg version="1.0" xmlns="http://www.w3.org/2000/svg"
 width="1952.000000pt" height="2206.000000pt" viewBox="0 0 1952.000000 2206.000000"
 preserveAspectRatio="xMidYMid meet">

<g transform="translate(0.000000,2206.000000) scale(0.100000,-0.100000)"
fill="#22c55e" stroke="none">
<path d="M9688 18567 c-20 -8 -51 -23 -69 -35 -25 -16 -5111 -5093 -7001
-6989 -463 -464 -461 -462 -461 -584 0 -128 -13 -112 606 -730 306 -305 1968
-1962 3693 -3684 2224 -2220 3151 -3139 3187 -3160 46 -27 61 -30 132 -30 62
0 89 5 120 22 24 13 874 854 2155 2133 1163 1161 2827 2820 3696 3686 1188
1183 1589 1588 1610 1627 25 46 29 62 28 137 0 68 -4 94 -22 130 -30 58 -7405
7431 -7465 7461 -50 26 -159 34 -209 16z m3624 -4077 l3533 -3530 -3225 -3220
c-1774 -1771 -3365 -3360 -3536 -3531 l-312 -312 -1373 1372 c-756 755 -2345
2342 -3531 3527 -1187 1185 -2158 2158 -2158 2163 0 4 1549 1555 3441 3447
1893 1891 3480 3478 3527 3527 47 48 89 87 93 87 5 0 1598 -1588 3541 -3530z"/>
<path d="M6496 14223 l-3269 -3267 541 -536 c298 -294 1768 -1759 3267 -3255
1500 -1496 2730 -2721 2735 -2723 5 -2 979 966 2165 2150 1186 1184 2657 2651
3268 3260 l1112 1107 -142 143 c-78 79 -1305 1306 -2728 2728 -1422 1422
-2828 2827 -3123 3122 -295 296 -541 538 -547 538 -5 0 -1481 -1470 -3279
-3267z m4304 45 l0 -1422 58 55 c229 221 437 335 752 413 325 79 762 76 1078
-9 93 -25 165 -48 207 -66 11 -4 54 -22 95 -39 312 -129 644 -392 865 -685
164 -218 257 -393 344 -649 214 -624 211 -1214 -10 -1811 -158 -427 -434 -803
-784 -1068 -258 -195 -605 -342 -950 -403 -115 -21 -488 -29 -627 -15 -236 25
-447 79 -688 179 -573 235 -1054 706 -1297 1272 -39 91 -111 300 -115 337 -6
43 -13 -464 -16 -1041 -2 -346 -6 -634 -9 -639 -6 -10 -1077 -2 -1092 8 -4 2
-6 76 -5 164 0 89 -1 161 -4 161 -3 0 -34 -25 -70 -55 -123 -106 -208 -162
-357 -234 -230 -113 -460 -161 -766 -161 -496 0 -974 166 -1346 467 -648 526
-981 1402 -867 2283 106 815 561 1490 1229 1823 355 177 694 247 1130 234 473
-14 862 -140 1261 -409 384 -257 693 -630 872 -1048 8 -18 11 519 11 1878 l1
1902 550 0 550 0 0 -1422z"/>
<path d="M7345 12299 c-413 -40 -792 -321 -958 -709 -178 -418 -165 -920 36
-1315 155 -306 436 -535 759 -616 121 -30 389 -38 529 -14 185 31 335 92 481
195 156 111 260 228 347 392 111 206 163 431 163 703 2 407 -107 736 -327 990
-107 124 -310 254 -491 315 -154 53 -368 76 -539 59z"/>
<path d="M11900 12300 c-515 -64 -892 -397 -1019 -903 -36 -140 -51 -244 -55
-372 -21 -682 326 -1206 899 -1356 220 -57 512 -51 711 16 353 118 634 407
753 773 93 282 103 603 30 912 -68 290 -214 522 -431 687 -155 117 -314 191
-493 228 -95 19 -295 27 -395 15z"/>
</g>
</svg>
