<?xml version="1.0" standalone="no"?>
<!DOCTYPE svg PUBLIC "-//W3C//DTD SVG 20010904//EN"
 "http://www.w3.org/TR/2001/REC-SVG-20010904/DTD/svg10.dtd">
<svg version="1.0" xmlns="http://www.w3.org/2000/svg"
 width="100%" height="100%" viewBox="0 800 1952 800"
 preserveAspectRatio="xMidYMid meet">

<g transform="translate(0.000000,2206.000000) scale(0.100000,-0.100000)"
fill="#22c55e" stroke="none">
<path d="M4008 14252 c-22 -9 -111 -97 -1473 -1447 -621 -616 -1273 -1262
-1448 -1435 -176 -173 -325 -327 -332 -341 -15 -28 -7 -83 16 -116 8 -11 190
-192 404 -403 215 -212 707 -700 1095 -1086 1089 -1084 1689 -1676 1711 -1692
27 -19 93 -17 121 2 12 9 589 579 1282 1269 694 689 1410 1400 1593 1581 182
180 337 341 343 357 7 17 10 44 5 66 -5 33 -43 74 -283 313 -153 151 -875 869
-1606 1595 -730 726 -1338 1325 -1350 1332 -23 14 -52 15 -78 5z m709 -901
c1358 -1348 2363 -2356 2363 -2370 0 -14 -68 -83 -1300 -1306 -382 -379 -928
-921 -1212 -1204 -452 -451 -519 -513 -537 -505 -11 5 -318 306 -683 669 -365
363 -1043 1035 -1506 1494 -582 575 -842 840 -842 854 0 14 65 85 192 212
158 156 1701 1686 2621 2598 121 120 225 217 232 215 7 -2 309 -297 672 -657z"/>
<path d="M3248 13003 c-430 -427 -1057 -1050 -1391 -1383 -335 -333 -616 -612
-625 -620 -14 -13 76 -106 884 -908 1314 -1307 1910 -1892 1925 -1892 7 0 126
112 264 248 255 253 1333 1323 2113 2097 237 236 432 434 432 440 0 9 -674
681 -2442 2435 -197 195 -362 356 -367 358 -5 2 -362 -347 -793 -775z m1242
-591 l5 -604 25 27 c83 88 287 172 448 183 268 19 471 -41 677 -203 178 -139
328 -400 365 -635 27 -176 5 -416 -53 -570 -72 -193 -214 -383 -357 -480 -177
-120 -346 -171 -565 -171 -237 0 -425 58 -610 189 -180 127 -304 287 -380 488
l-32 85 0 -358 0 -358 -239 0 -239 0 -3 67 -3 68 -52 -38 c-161 -119 -336
-163 -556 -142 -135 13 -200 32 -326 94 -310 153 -501 442 -546 827 -28 241
54 560 190 739 136 181 310 304 518 366 107 32 322 44 455 24 306 -44 613
-265 757 -545 l31 -60 0 75 c0 41 0 402 0 801 0 399 2 727 5 730 3 3 112 5
242 5 l238 -1 5 -603z"/>
<path d="M2918 11544 c-119 -28 -238 -115 -309 -225 -75 -117 -106 -306 -75
-459 44 -219 181 -374 373 -425 68 -19 212 -20 280 -4 80 20 179 77 233 135
107 118 152 240 152 414 0 192 -56 335 -172 444 -126 116 -310 162 -482 120z"/>
<path d="M4861 11534 c-230 -78 -362 -277 -362 -544 0 -235 97 -416 272 -510
83 -44 148 -60 249 -60 149 0 248 37 353 133 108 98 164 229 174 402 15 287
-140 527 -382 590 -92 24 -216 19 -304 -11z"/>
<path d="M15819 12156 c-115 -41 -181 -167 -149 -287 41 -155 232 -217 367
-120 80 58 113 193 69 282 -53 109 -179 164 -287 125z"/>
<path d="M13457 12098 c-41 -65 -197 -344 -197 -352 0 -3 85 -6 189 -6 l190 0
62 86 c34 48 104 140 156 205 l93 119 -230 0 -229 0 -34 -52z"/>
<path d="M8993 12122 l-173 -2 0 -371 0 -371 -47 42 c-131 115 -343 170 -529
135 -119 -22 -266 -93 -351 -169 -219 -200 -298 -552 -193 -866 74 -224 233
-386 446 -456 80 -26 102 -29 219 -28 109 0 141 4 195 23 79 28 163 78 210
125 19 19 38 36 43 36 4 0 7 -34 7 -75 l0 -75 190 0 190 0 -2 1027 c-3 904 -5
1026 -18 1027 -8 1 -93 0 -187 -2z m-401 -949 c136 -64 217 -187 226 -343 7
-136 -29 -238 -119 -328 -144 -144 -411 -143 -553 3 -169 173 -145 491 47 632
110 81 272 95 399 36z"/>
<path d="M16648 11891 l-188 -56 0 -158 0 -158 -122 3 -121 3 1 -42 c0 -24 1
-104 1 -178 l1 -135 119 0 120 0 3 -392 c4 -374 5 -396 26 -460 42 -124 148
-213 291 -244 68 -14 267 -19 357 -8 l51 6 -1 170 -1 170 -112 -1 c-129 -2
-172 10 -203 61 -19 31 -20 50 -20 366 0 258 3 332 13 333 6 1 81 0 165 -1
l152 -2 -2 177 -3 177 -162 -1 -163 -2 -1 201 c-2 216 -2 216 -9 223 -3 2 -89
-21 -192 -52z"/>
<path d="M10010 11559 c-163 -29 -326 -115 -432 -227 -76 -80 -117 -152 -161
-277 -30 -86 -32 -97 -32 -250 0 -140 3 -169 23 -235 90 -287 291 -465 593
-526 111 -22 313 -15 417 15 147 43 273 122 352 222 22 28 40 54 40 58 0 4
-48 35 -108 68 -59 34 -124 73 -145 88 l-39 25 -49 -44 c-124 -111 -353 -134
-519 -51 -58 29 -135 111 -160 171 -11 25 -20 48 -20 50 0 2 247 4 549 4 l548
0 7 38 c11 69 6 232 -10 310 -20 97 -87 240 -147 313 -86 105 -215 186 -363
230 -81 23 -261 33 -344 18z m307 -359 c70 -35 121 -88 158 -167 46 -97 75
-89 -336 -90 -293 -1 -361 2 -366 13 -8 20 40 117 80 161 107 118 316 155 464
83z"/>
<path d="M11798 11560 c-134 -24 -214 -60 -305 -137 l-52 -44 -3 72 -3 72 -37
0 c-21 -1 -105 -2 -188 -2 l-150 -1 0 -1005 0 -1005 190 0 190 0 0 360 c0 198
3 360 6 360 4 0 14 -8 23 -18 9 -10 36 -34 61 -54 235 -189 605 -165 836 54
126 120 190 235 229 412 14 62 16 106 12 210 -7 151 -26 228 -88 356 -60 121
-181 241 -299 298 -47 22 -112 48 -145 57 -73 19 -213 27 -277 15z m204 -387
c81 -38 148 -106 190 -191 32 -64 33 -72 33 -182 0 -108 -2 -119 -31 -180 -96
-202 -334 -281 -541 -180 -75 37 -134 101 -177 190 -29 61 -31 73 -31 175 0
103 2 114 32 177 37 79 101 147 172 183 73 36 115 45 208 41 65 -3 95 -10 145
-33z"/>
<path d="M13410 11564 c-14 -2 -52 -9 -85 -15 -221 -39 -420 -190 -525 -398
-55 -107 -71 -174 -77 -312 -10 -223 46 -390 188 -560 75 -90 214 -177 351
-221 88 -28 287 -35 385 -15 153 33 271 97 384 207 87 86 146 179 185 295 39
116 46 311 15 440 -67 278 -250 470 -526 550 -83 24 -238 39 -295 29z m196
-379 c93 -27 174 -100 227 -205 30 -62 32 -70 32 -180 0 -108 -2 -119 -31
-180 -37 -78 -105 -147 -183 -186 -51 -27 -65 -29 -166 -29 -102 0 -114 2
-169 30 -109 55 -180 146 -205 263 -68 323 188 575 495 487z"/>
<path d="M14850 11564 c-220 -37 -361 -126 -433 -273 -31 -63 -32 -71 -32
-186 0 -112 2 -123 28 -173 71 -135 193 -203 522 -293 156 -42 215 -90 201
-165 -25 -130 -317 -137 -434 -10 -22 24 -45 53 -51 65 -7 11 -16 21 -21 21
-8 0 -297 -156 -310 -167 -10 -9 48 -101 100 -157 73 -79 155 -131 259 -164
79 -24 100 -27 251 -27 145 0 174 3 240 23 251 79 369 232 358 467 -3 79 -8
102 -36 157 -59 120 -163 192 -367 253 -340 102 -332 99 -355 159 -8 23 -7 36
7 64 35 71 139 99 248 67 47 -13 69 -27 112 -72 52 -52 56 -55 81 -43 22 10
257 146 271 157 9 7 -26 59 -75 112 -103 112 -254 176 -434 184 -58 3 -116 4
-130 1z"/>
<path d="M17902 11559 c-171 -26 -313 -98 -434 -220 -64 -64 -85 -94 -127
-181 -69 -142 -85 -224 -79 -397 5 -117 10 -148 35 -223 64 -187 197 -340 367
-423 137 -67 195 -80 366 -79 131 0 153 3 230 28 104 34 175 72 261 142 68 54
145 147 181 219 151 296 93 704 -131 923 -93 91 -225 164 -352 195 -84 21
-236 29 -317 16z m281 -388 c105 -51 189 -159 217 -280 20 -86 8 -200 -29
-276 -44 -90 -129 -166 -217 -195 -147 -49 -320 -8 -415 98 -160 179 -130 485
60 617 73 50 134 66 241 62 74 -3 106 -9 143 -26z"/>
<path d="M15723 11522 l-23 -3 0 -725 0 -724 193 0 192 0 0 728 0 727 -170 0
c-94 0 -180 -1 -192 -3z"/>
</g>
</svg>
