<?xml version="1.0" standalone="no"?>
<!DOCTYPE svg PUBLIC "-//W3C//DTD SVG 20010904//EN"
 "http://www.w3.org/TR/2001/REC-SVG-20010904/DTD/svg10.dtd">
<svg version="1.0" xmlns="http://www.w3.org/2000/svg"
 width="100%" height="100%" viewBox="150 450 900 400"
 preserveAspectRatio="xMidYMid meet">

<g transform="translate(0.000000,1024.000000) scale(0.100000,-0.100000)"
fill="#22c55e" stroke="none">
<path d="M1617 5401 c-582 -583 -697 -703 -697 -726 0 -33 15 -50 551 -590
224 -225 503 -508 620 -628 185 -188 218 -217 244 -217 26 0 112 82 708 682
372 376 684 695 692 710 9 16 13 38 9 50 -9 35 -1384 1418 -1410 1418 -13 0
-250 -230 -717 -699z m1377 -57 c485 -489 642 -653 644 -674 3 -23 -77 -107
-638 -673 -483 -486 -648 -647 -665 -647 -18 0 -150 128 -527 508 -731 736
-788 796 -788 816 0 27 1288 1316 1314 1316 13 0 240 -222 660 -646z"/>
<path d="M1726 5288 c-389 -392 -596 -608 -596 -621 0 -19 167 -191 916 -944
149 -150 277 -273 285 -273 19 -1 1209 1201 1209 1220 0 18 -1190 1221 -1207
1220 -6 0 -279 -271 -607 -602z m805 25 c1 -137 1 -254 0 -262 -2 -8 11 -3 32
13 97 74 247 86 369 29 164 -77 258 -230 258 -422 0 -147 -47 -260 -146 -351
-72 -66 -142 -93 -252 -98 -203 -9 -358 79 -442 253 l-29 60 -1 -147 0 -148
-105 0 -105 0 0 25 c0 31 -1 31 -44 1 -86 -58 -249 -62 -360 -7 -70 34 -152
115 -187 182 -68 134 -64 326 9 463 37 70 122 150 201 189 61 30 72 32 166 31
85 0 110 -4 165 -27 86 -36 170 -104 219 -178 l41 -61 0 351 0 351 105 0 105
0 1 -247z"/>
<path d="M1804 4901 c-74 -34 -134 -136 -134 -230 0 -119 79 -229 179 -250 90
-19 153 0 213 67 45 50 62 100 62 182 0 36 -6 82 -13 104 -17 48 -76 115 -118
133 -46 19 -140 16 -189 -6z"/>
<path d="M2659 4897 c-31 -16 -54 -39 -76 -76 -76 -126 -62 -251 39 -348 43
-41 76 -53 146 -53 137 1 222 96 222 250 0 55 -5 81 -24 118 -29 57 -70 100
-113 118 -52 22 -143 18 -194 -9z"/>
<path d="M7654 5266 c-30 -30 -34 -40 -34 -84 0 -66 28 -101 85 -108 53 -7 91
8 116 48 48 77 -4 178 -92 178 -33 0 -47 -6 -75 -34z"/>
<path d="M6262 5258 c-15 -19 -82 -156 -82 -168 0 -6 32 -10 79 -10 l79 0 28
38 c15 20 30 39 33 42 14 12 81 99 81 104 0 13 -207 6 -218 -6z"/>
<path d="M3920 4765 l0 -495 285 0 285 0 0 90 0 90 -185 0 -185 0 0 405 0 405
-100 0 -100 0 0 -495z"/>
<path d="M7310 5175 c-25 -7 -64 -19 -88 -25 l-43 -11 3 -72 3 -72 -57 -3 -58
-3 0 -89 0 -90 58 0 57 0 0 -198 c0 -191 1 -199 25 -247 38 -74 92 -99 219
-99 l96 -1 3 88 3 87 -58 0 c-102 0 -103 2 -103 200 l0 169 78 3 77 3 3 82 3
82 -78 3 -78 3 -3 103 c-1 56 -6 102 -10 101 -4 0 -27 -6 -52 -14z"/>
<path d="M4809 5000 c-139 -24 -260 -150 -287 -298 -12 -68 1 -188 27 -247 28
-63 104 -140 169 -172 50 -24 68 -28 157 -28 88 0 107 3 157 27 154 72 234
241 198 420 -40 207 -218 333 -421 298z m157 -198 c127 -69 121 -294 -9 -353
-107 -48 -226 8 -258 123 -22 81 20 195 84 230 50 27 134 27 183 0z"/>
<path d="M5581 4999 c-90 -17 -182 -94 -228 -188 -23 -46 -28 -72 -31 -152 -7
-154 36 -250 144 -328 65 -46 135 -66 214 -58 68 6 113 28 159 76 l33 36 -7
-75 c-10 -106 -34 -145 -104 -169 -76 -25 -168 -7 -223 46 l-26 25 -71 -37
c-39 -21 -71 -41 -71 -45 0 -10 39 -60 65 -83 11 -10 45 -30 75 -45 50 -25 65
-27 175 -27 111 0 125 2 180 28 78 36 107 65 142 140 l28 62 3 388 3 387 -61
1 c-33 1 -70 2 -82 2 -20 1 -23 -4 -26 -36 l-3 -38 -44 39 c-62 54 -143 71
-244 51z m172 -183 c129 -54 143 -262 23 -344 -86 -58 -213 -24 -263 72 -21
40 -22 141 -1 181 20 38 65 81 98 94 36 14 106 13 143 -3z"/>
<path d="M6660 4995 c-57 -16 -109 -52 -144 -98 -21 -29 -34 -134 -22 -181 17
-67 94 -118 254 -168 76 -24 95 -34 105 -55 10 -23 8 -28 -16 -49 -20 -17 -40
-24 -72 -24 -58 0 -92 14 -130 54 l-31 33 -70 -40 c-38 -22 -70 -41 -72 -43
-6 -4 45 -78 69 -101 43 -39 117 -65 204 -70 190 -12 300 71 299 227 -1 121
-48 171 -215 225 -62 20 -119 41 -126 47 -7 6 -13 23 -13 39 0 38 29 53 94 46
41 -4 55 -10 77 -37 l27 -32 66 39 c36 21 65 43 66 49 0 6 -13 29 -29 51 -59
81 -203 120 -321 88z"/>
<path d="M8222 4999 c-69 -11 -123 -40 -183 -96 -72 -67 -102 -137 -107 -249
-7 -142 28 -236 116 -316 54 -48 84 -64 160 -78 124 -25 241 6 319 82 37 36
72 94 62 101 -6 4 -133 80 -141 84 -4 2 -14 -10 -24 -26 -38 -65 -138 -90
-212 -52 -75 38 -102 87 -102 182 0 66 14 101 57 140 41 39 66 49 118 49 55 0
102 -19 134 -54 14 -14 29 -26 35 -26 15 0 136 74 136 83 0 5 -14 29 -32 53
-69 96 -201 144 -336 123z"/>
<path d="M8880 4997 c-97 -27 -182 -107 -222 -206 -18 -46 -22 -76 -22 -171
-1 -107 1 -119 29 -175 38 -79 109 -148 180 -174 104 -39 236 -22 301 40 l22
20 6 -35 7 -36 69 0 c110 0 100 -38 100 371 l0 360 -87 -3 -88 -3 3 -39 3 -39
-37 33 c-21 18 -53 39 -71 46 -48 21 -141 26 -193 11z m175 -186 c75 -35 115
-100 115 -188 0 -47 -21 -106 -48 -136 -44 -49 -135 -70 -199 -46 -42 15 -92
68 -103 109 -33 117 17 230 117 265 51 19 71 18 118 -4z"/>
<path d="M6190 4630 l0 -360 90 0 90 0 -2 358 -3 357 -87 3 -88 3 0 -361z"/>
<path d="M7640 4625 l0 -355 90 0 90 0 0 355 0 355 -90 0 -90 0 0 -355z"/>
</g>
</svg>
